<?xml version="1.0"?><svg width="400" height="400" xmlns="http://www.w3.org/2000/svg" xmlns:xlink="http://www.w3.org/1999/xlink">
 <defs>
  <linearGradient id="linearGradient4048">
   <stop stop-color="#853c00" stop-opacity="0.743386" offset="0" id="stop4049"/>
   <stop stop-color="#5e0000" stop-opacity="0" offset="1" id="stop4050"/>
  </linearGradient>
  <linearGradient y2="0.789063" y1="0.398438" xlink:href="#linearGradient4048" x2="0.3125" x1="0.513021" id="linearGradient4051"/>
  <linearGradient y2="0.632075" y1="0.632075" xlink:href="#linearGradient4048" x2="0.284038" x1="0.720657" id="linearGradient4056"/>
 </defs>
 <g>
  <title>Layer 1</title>
  <path fill="#eab033" fill-rule="evenodd" stroke-width="1.0000000pt" id="path3408" d="m190.102203,33.214291c-25.70433,2.954128 -52.06694,4.605629 -76.284821,14.528168c-17.649506,4.922581 -35.758156,10.09927 -50.531982,21.435673c-12.837391,8.008812 -27.013729,16.281311 -33.659719,30.591286c-1.916231,10.514534 -5.407591,24.319534 4.26,32.119484c17.759789,9.298203 38.511642,6.098862 57.730148,8.644226c55.418976,2.858597 110.963196,1.401245 166.38063,4.282578c34.315216,0.342209 68.654724,-1.98645 102.94812,0.061722c0.727173,-19.240845 -10.329865,-35.922836 -16.48288,-53.45208c-6.111633,-11.324104 -18.95343,-16.031723 -28.152893,-24.331459c-11.49118,-8.800266 -25.297729,-13.647007 -39.359467,-16.357307c-28.619888,-7.352612 -57.671097,-12.9128 -86.847137,-17.522289z"/>
  <path fill="#eab033" fill-rule="evenodd" stroke-width="1.0000000pt" id="path3409" d="m355.954926,265.791931c-15.402954,6.67984 -30.573303,15.421661 -47.776245,16.005646c-26.442749,4.36084 -53.050766,8.655212 -79.930344,8.321869c-35.725143,1.639587 -71.625244,0.553619 -107.143257,-3.626709c-19.227638,-2.889893 -38.476212,-6.043152 -57.489609,-10.008972c-17.68034,-5.033905 -35.379822,-10.018097 -52.891661,-15.620056c0.87745,14.313171 0.61718,30.660614 11.305309,41.68396c6.19248,15.318024 24.165751,17.785034 37.333261,24.278412c20.13134,9.575073 42.990387,8.967468 64.314735,14.174927c27.000114,4.618225 54.506111,5.090576 81.830559,5.11557c20.817062,-0.673157 41.719711,-1.798248 62.404251,-3.814301c20.447632,-5.346771 42.931488,-5.489807 61.170441,-17.27829c9.478119,-4.819519 23.662872,-7.722626 25.508484,-20.204651c1.628204,-10.951965 5.012848,-22.088196 2.590302,-33.307831c-0.314331,-1.925201 -0.725433,-3.834442 -1.226227,-5.719574z"/>
  <path fill="#c34b00" fill-rule="evenodd" stroke-width="1.0000000pt" id="path3410" d="m14.16617,263.001221l-3.90472,-4.694946l-1.56189,-19.562271l10.152279,-3.912445l-0.780949,-7.042404l26.552099,4.694931l57.008907,3.129959l11.714165,-2.347458l14.837929,10.954849l26.552094,1.564987l35.923431,3.129974l46.075699,-3.129974l24.990219,-7.82489l32.799622,-0.782501l48.418549,-0.782486l17.9617,-3.91246l6.247559,7.824905l1.561859,14.084824l-10.152252,14.867325l-40.6091,14.084808l-65.599289,10.172394l-55.447021,0l-54.666077,-3.129974l-57.008911,-7.042419l-21.085487,-4.694916l-49.980413,-15.649811z"/>
  <path fill="#eeeee0" fill-rule="evenodd" stroke-width="1.0000000pt" id="path3411" d="m18.851839,227.802979l-3.904719,-12.575226l2.34283,-17.81488l28.89493,18.862823l38.266254,5.239685l32.018684,2.095871l-0.78093,11.527283l-16.399826,3.143799l-31.237755,-2.095856l-31.237759,-5.239685l-17.96171,-3.143814z"/>
  <path fill="#eeeee0" fill-rule="evenodd" stroke-width="1.0000000pt" id="path3412" d="m117.334183,218.860931l-1.645294,16.463577l10.69429,9.260788l37.841385,5.144882l39.486649,2.057938l31.260254,-2.057938l26.324432,-10.289734l0,-19.550537l-28.792358,1.028976l-37.018723,2.057953l-31.260254,-1.028976l-29.61499,-1.028976l-17.275391,-2.057953z"/>
  <path fill="#eeeee0" fill-rule="evenodd" stroke-width="1.0000000pt" id="path3413" d="m253.135025,222.159271l0.780945,14.967682l27.333054,0.935486l41.390015,1.870956l31.237762,-4.677383l8.590393,-3.741943l3.904724,-18.70961l-15.618896,5.612869l-28.894928,2.806458l-28.113983,0l-24.209259,0.935486l-10.933228,-1.870956l-2.342804,-0.935501l-3.123795,2.806458z"/>
  <path fill="#eb3d33" fill-rule="evenodd" stroke-width="1.0000000pt" id="path3414" d="m17.289949,199.811432l1.56189,-26.076721l47.637579,14.900986l57.789848,4.656555l53.104187,-0.931305l8.590393,1.86261l0.78096,22.351471l0,5.58786l-41.39006,0.93132l-26.552078,-3.72525l-3.904724,3.72525l-38.266251,-2.793945l-31.237762,-0.931305l-28.113981,-19.557526z"/>
  <path fill="#eb3d33" fill-rule="evenodd" stroke-width="1.0000000pt" id="path3415" d="m182.717422,198.578934l44.871384,16.951981l17.628021,5.085602l9.615311,1.695206l39.262436,0l45.672638,0l25.640778,-6.780807l7.211456,-11.018784l-7.211456,-23.732788l-22.435669,12.713989l-25.640778,2.542786l-31.249695,-0.84758l-19.230621,-4.238007l-38.461151,-2.542786l-22.435684,-8.475998l-16.025482,-2.542801l-11.21785,15.25679l8.012756,7.628403l-4.006393,-1.695206z"/>
  <path fill="#ba3d33" fill-rule="evenodd" stroke-width="1.0000000pt" id="path3416" d="m185.973846,200.198547l0,19.562256l0,3.129959l43.732864,0l24.209259,-2.347473l-34.361542,-10.954865l-22.647369,-7.824905l-10.933212,-1.564972z"/>
  <path fill="url(#linearGradient4051)" fill-rule="evenodd" stroke-width="1.0000000pt" id="path4047" d="m190.375275,34.594009c-24.46933,3.030231 -49.64035,4.099991 -72.796043,13.40987c-19.549202,5.603741 -39.757362,11.169701 -56.0298,23.987133c-13.396572,8.741936 -30.879351,17.531914 -33.15377,35.255936c-1.90143,10.717949 -0.4981,25.779358 11.56953,29.745499c60.211056,9.026474 121.374928,5.170029 182.013554,8.16954c42.532974,2.184967 85.132278,-0.356461 127.671402,0.66597c7.795868,2.898132 16.067047,-2.507645 10.643951,-10.777313c-4.319946,-16.67749 -10.34906,-33.052925 -19.336792,-47.803093c-11.961853,-10.396973 -25.037598,-19.679054 -38.824402,-27.407772c-36.063507,-12.812057 -74.200241,-18.65992 -111.757629,-25.24577z"/>
  <path fill="#000000" fill-opacity="0.525" fill-rule="evenodd" stroke-width="1.0000000pt" id="path4054" d="m356.219635,268.478638l-39.828156,14.86731l-59.351715,7.824921l-53.104202,1.564972l76.532486,1.564972l53.104187,-10.172363l17.961731,-3.129974l2.342834,18.779785l-1.56189,10.172363l6.247528,-25.822174l-2.342804,-15.649811z"/>
  <path fill="url(#linearGradient4056)" fill-rule="evenodd" stroke-width="1.0000000pt" id="path4055" d="m356.295654,266.876343c-17.413879,8.595215 -35.483582,16.112671 -55.099396,17.170135c-47.280441,8.656189 -95.644302,8.947296 -143.511795,6.657166c-35.171402,-1.849792 -70.289314,-7.372345 -104.350155,-16.158722c-13.184589,-1.94281 -33.581139,-13.266876 -42.108759,-9.93219c-0.66025,17.933899 5.14196,35.609589 17.75811,48.416321c16.57939,10.700439 35.88011,17.891846 55.093161,22.344543c33.356041,5.412415 66.635063,12.058075 100.601982,11.695251c28.468079,0.593079 57.145828,-0.948395 85.357361,-4.127808c21.488586,-4.728607 44.309143,-6.464478 63.278107,-18.627594c22.95108,-4.117401 25.786011,-29.168701 24.659637,-48.327179c-0.317261,-3.075989 -0.884613,-6.123138 -1.678253,-9.109924z"/>
  <path fill="#000000" fill-opacity="0.35625" fill-rule="evenodd" stroke-width="1.0000000pt" id="path4058" d="m10.58952,261.087097l4.237729,30.65506l23.30755,27.428192l-14.832069,-30.655029l4.23773,-16.134247l80.516981,12.907379l-97.467921,-24.201355z"/>
  <path fill="#000000" fill-opacity="0.45625" fill-rule="evenodd" stroke-width="1.0000000pt" id="path4059" d="m53.19775,278.572784l42.311558,9.859375l60.023346,8.873413l67.895264,1.971893l46.247498,-5.915619l-32.471634,-0.985931l-48.215485,0l-72.815224,-5.915649l-50.183456,-7.887482l-12.791866,0z"/>
  <path fill="#000000" fill-opacity="0.53125" fill-rule="evenodd" stroke-width="1.0000000pt" id="path4060" d="m9.90222,239.135254l2.95197,19.718781l48.215482,17.746857l13.775848,3.943756l-6.887917,-23.662506l18.695786,0.985931l30.50367,2.957825l7.871918,6.90155l3.935959,15.775024l3.935959,3.943726l9.83989,0l0,-16.760925l8.855911,-10.845337l23.615738,3.943787l1.967987,6.90155l19.679794,-2.957825l17.711792,-1.971863l1.967987,11.831268l-1.967987,9.859344l-0.983978,3.943756l15.743835,0l-0.984009,-17.746887l8.855911,-7.887482l1.967987,2.957825l5.903931,0l5.903931,-3.943756l9.839905,9.859375l3.935974,9.859375l6.887909,4.929688l42.311554,-4.929688l35.423615,-12.8172l5.903931,-3.943756l10.823883,-16.760941l-0.983978,-12.817184l-3.935974,-3.943756l-18.695801,2.957809l-18.695801,0.985947l-61.007355,-0.985947l-25.58371,8.873459l-47.231476,3.943741l-63.95932,-4.929688l-12.791862,-12.8172l-9.839897,3.943756l-62.975319,-1.971878l-21.647772,-5.915619l0.98399,6.901566l-9.83989,3.943741z"/>
  <path fill="#000000" fill-opacity="0.421875" fill-rule="evenodd" stroke-width="1.0000000pt" id="path4064" d="m116.173073,224.346191l-1.967979,7.887497l-12.791862,2.957825l-33.455643,0l31.487671,-1.971878l7.87191,-7.887512l-2.951973,-0.985931l-10.823875,-2.957809l22.631752,2.957809z"/>
  <path fill="#000000" fill-opacity="0.421875" fill-rule="evenodd" stroke-width="1.0000000pt" id="path4065" d="m262.787506,224.346191l1.967987,10.845322l-14.759857,5.915634l-13.775848,5.915619l-17.711807,0.985931l27.551697,-6.90155l9.83989,-8.873459l-1.967972,-8.873428l-6.887924,0l15.743835,0.985931z"/>
  <path fill="#000000" fill-opacity="0.421875" fill-rule="evenodd" stroke-width="1.0000000pt" id="path4066" d="m367.090363,216.458694l0.984009,8.873428l-3.935974,7.887512l-16.727814,3.943741l-30.503662,0.985947l37.391602,-4.929688l6.887909,-2.957809l-0.983978,-6.901566l-6.887939,-2.957825l-1.967957,-0.985931l5.903931,-1.971878l9.839874,-0.985931z"/>
  <path fill="#000000" fill-opacity="0.421875" fill-rule="evenodd" stroke-width="1.0000000pt" id="path4067" d="m18.75812,204.627441l-1.967979,8.873428l1.967979,13.803146l15.74383,3.943741c0,0 -3.935949,-1.971878 -7.87191,-6.901566c-3.935959,-4.929688 -4.919949,-7.887497 -4.919949,-7.887497l-2.951971,-11.831253z"/>
  <path fill="#000000" fill-opacity="0.25" fill-rule="evenodd" stroke-width="1.0000000pt" id="path4689" d="m17.77413,183.922745l0.98399,18.732803l26.56772,18.732834l15.743832,-1.971878l-12.791862,-9.859375l-5.903938,-14.789063l-4.919952,-6.901581l-9.839888,0.985931l-9.839901,-4.929672z"/>
  <path fill="#000000" fill-opacity="0.25" fill-rule="evenodd" stroke-width="1.0000000pt" id="path5311" d="m90.589348,199.697739l23.615746,3.943756l22.63176,0.985947l26.567703,1.971863l11.807877,2.957825l9.83989,10.845306l0.983994,-20.704697l-12.791855,-2.957809l-38.375595,0.985947l-39.359566,-0.985947l-4.919952,2.957809z"/>
  <path fill="#4fbe33" fill-rule="evenodd" stroke-width="1.0000000pt" id="path3425" d="m28.22316,126.847893l-6.247549,-5.477432l-7.809441,0.782486l6.247549,10.954857l-11.714159,1.565002l2.34284,7.042419l5.4666,0.782471l-6.247551,6.259933l-5.4666,4.694946l4.68566,3.129959l7.028491,0.782486l-5.4666,10.172379l-5.46661,5.477417c0,0 0.78094,5.477448 3.90472,5.477448c3.12378,0 12.495101,0 12.495101,0l-1.561892,7.82489l6.247561,3.91246l9.371321,-3.91246l7.809441,9.389893l2.342838,0.782486l11.714161,-6.259918l10.152267,7.042419l12.495102,0.782471l20.30455,1.564987l7.028488,-8.607391l4.685669,12.519852l5.466606,-10.172379l14.056992,4.694931l4.685669,3.129974c0,0 16.399811,-4.694946 19.52359,-4.694946c3.123779,0 15.618881,1.564972 15.618881,1.564972l2.342819,9.389893l12.495132,-10.172363l9.371307,-10.95488l19.523621,9.389893l3.904694,-9.389893l7.028488,10.172379l11.714188,2.347473l7.809433,-3.129959l8.590378,14.084824c0,0 15.618881,14.867325 17.961716,11.73735c2.342834,-3.129959 16.399811,-17.214783 16.399811,-17.214783l16.399841,3.129959l7.028473,-4.694946l16.399841,3.129974l7.809448,-3.91246l7.809418,-3.91246l13.276062,5.477448l3.904724,-10.954865l4.685669,-4.694946c0,0 7.028473,1.564987 7.028473,-2.347458c0,-3.912476 -0.780945,-10.95488 -0.780945,-10.95488c0,0 -5.466583,-0.782486 -5.466583,-3.91246c0,-3.129944 3.904724,-10.954849 3.904724,-10.954849l-3.123779,-7.042419l2.342804,-7.824905l-7.809418,-1.564972c0,0 -65.599304,-1.564972 -68.723083,-0.782501c-3.123779,0.782501 -99.179886,-0.782471 -99.179886,-0.782471l-86.684776,0l-35.142479,-2.347488l-30.45681,-3.912445l-14.056999,-8.607399z"/>
  <path fill="#000000" fill-opacity="0.3625" fill-rule="evenodd" stroke-width="1.0000000pt" id="path5312" d="m344.458618,199.697739l8.855896,4.929703l-4.919952,5.915619l-12.79184,7.887512l-3.935974,2.957809l19.67981,-3.943756l14.759827,-3.943756l4.919952,-9.859375l-3.935974,-15.775009l-5.903931,5.915634l-2.951965,8.873428l-13.775848,-2.957809z"/>
  <path fill="#000000" fill-opacity="0.215625" fill-rule="evenodd" stroke-width="1.0000000pt" id="path5313" d="m186.036316,200.683685l-0.983994,19.71875l11.807892,0l23.615738,1.971878l12.791855,0l-15.74382,-7.887512l-10.823883,-7.887497l-7.871918,-5.915619l-7.871918,-4.929703l-3.935959,0l-0.983994,4.929703z"/>
  <path fill="#000000" fill-opacity="0.2875" fill-rule="evenodd" stroke-width="1.0000000pt" id="path5314" d="m29.58201,125.752403l0,-28.592194l19.679789,-16.760941l19.679783,-13.803131l-19.679783,20.704689l-8.855907,17.746895l6.887928,19.71875l12.791859,7.887505l23.615746,4.929672l21.647766,3.943771l-35.423607,0l-23.615753,-2.957825l-10.823891,-5.915619l-5.903929,-6.901573z"/>
  <path fill="#000000" fill-opacity="0.2875" fill-rule="evenodd" stroke-width="1.0000000pt" id="path5315" d="m335.602722,81.385201l5.903931,12.817192l7.871918,21.690651l0,13.803123l-3.935974,10.845306l-10.823853,2.957809l16.727814,0l12.79184,0l-5.903931,-18.732811l-7.871918,-19.71875l-8.855896,-19.718765l-5.903931,-3.943756z"/>
  <path fill="#000000" fill-opacity="0.46875" fill-rule="evenodd" stroke-width="1.0000000pt" id="path5316" d="m82.717438,143.499283l22.631752,4.929688l30.503654,2.957825l22.63176,-1.971878l3.935959,9.85936l7.871933,-8.873444l6.887924,-0.985916l11.807877,5.915619l13.775848,-7.887512l7.871902,-2.957809l9.839905,9.85939l9.83989,-6.901581l8.855911,-0.985916l19.679779,5.915619l15.743835,-4.929703c0,0 3.935944,0.985947 6.887939,4.929703c2.951965,3.943741 8.855896,13.803131 8.855896,13.803131l1.967987,-9.85939l10.823853,-3.943741l1.967987,11.831253l4.919952,16.760941l-0.983978,-14.789063l3.935944,-7.887512l0,-9.859375l8.855927,0.985947l7.871918,-1.971893l9.839874,-0.985916l6.887939,3.943726l5.903931,-3.943726l7.871918,-1.971893l2.951965,0l-58.055389,-0.985931l-84.623077,-1.971878l-83.639099,-0.985931l-47.231506,-0.985947l-24.599724,-0.985931l-15.743824,-0.985947l-11.80788,-4.929688l-8.855898,-7.887505l-0.98399,6.901573l-3.935961,2.957825l11.807869,1.971863l2.951969,12.8172l13.775852,-2.957809l4.919949,2.957809l3.935963,-1.971893l6.887932,3.943771l1.967979,7.887482l4.919937,-5.915619l3.935959,-2.957825l1.967979,2.957825l1.967979,-9.859375z"/>
  <path fill="#000000" fill-opacity="0.2875" fill-rule="evenodd" stroke-width="1.0000000pt" id="path5317" d="m41.389881,159.274292l-5.903942,5.915634l-1.967979,10.845306l-5.903929,4.929703l17.711809,-0.985962l2.951969,-8.873428l5.903931,8.873428l5.903938,-9.85936l-2.951969,-8.873444l-15.743828,-1.971878z"/>
  <path fill="#000000" fill-opacity="0.2875" fill-rule="evenodd" stroke-width="1.0000000pt" id="path5318" d="m96.493294,170.119614l-1.967987,9.85936l5.903946,8.873444l3.935944,-9.85936l6.887932,4.929688l4.919945,-4.929688l9.839897,7.887497l-8.855911,-19.71875l-9.83989,-10.845322l-9.83989,-4.929688l-7.871933,-0.985947l7.871933,9.859375l-0.983986,9.85939z"/>
  <path fill="#000000" fill-opacity="0.2875" fill-rule="evenodd" stroke-width="1.0000000pt" id="path5319" d="m175.212433,178.007126l-0.983978,10.845291l2.951965,10.845322l6.887924,-8.873444l6.887924,-10.845322l5.903946,3.943771l7.871902,4.929672l7.871918,2.957809l3.935959,-2.957809l0.983994,-3.943741l-13.775864,-10.845322l-10.823868,-11.831253l-13.775848,-1.971878l2.95195,7.887512l-2.95195,8.873428l-9.839905,-2.957809l5.903931,3.943771z"/>
  <path fill="#000000" fill-opacity="0.409375" fill-rule="evenodd" stroke-width="1.0000000pt" id="path5322" d="m251.963608,172.091492l0,13.803131l12.791885,3.943741l-3.935974,6.901566l2.951965,9.859375l1.967987,6.901566l4.919952,-10.845322l4.919922,-10.845322l8.855927,1.971893l1.967987,-15.774994l6.887909,-6.901581l-11.807861,2.957809l-4.919952,6.901581l-11.807861,-11.831268l-0.984009,-7.887497l-9.839905,-0.985947l5.903961,6.901581l-0.984009,5.915619l-6.887924,-0.985931z"/>
  <path fill="#000000" fill-opacity="0.459375" fill-rule="evenodd" stroke-width="1.0000000pt" id="path5323" d="m327.730804,169.133667l9.839874,-4.929672l6.887939,7.887497l6.887939,-9.85939l10.823883,-7.887497l-2.951996,9.85939l1.967987,2.957809l-2.951965,8.873428l-4.919952,1.971893l3.935974,9.85936l-1.967987,10.845322l-8.855896,-13.803131l-8.855927,-0.985931l-1.967957,7.887482l-7.871918,1.971893l-5.903931,3.943756l-8.855927,-1.971893l-12.79187,0l-10.823853,6.901566l2.951965,-10.845322l10.823883,-2.957809l11.807861,0l5.903931,-8.873444l-3.935944,-5.915619l-0.984009,-9.85936l5.903961,3.943741l2.951935,-9.859375l2.951996,10.845306z"/>
  <path fill="#000000" fill-opacity="0.459375" fill-rule="evenodd" stroke-width="1.0000000pt" id="path5326" d="m91.573334,158.288361l-6.887917,-1.971878l-8.855904,2.957809l-3.935966,7.887512l-5.903931,0l-3.935955,4.929688l0,8.873444l4.919941,2.957809l-1.967979,7.887482l8.855904,0.985962l6.887932,-5.915634l3.935959,5.915634l5.903931,-3.943771l5.903946,6.901566l-1.967987,-13.803116l-2.951973,-4.929703l2.951973,-7.887497l0,-5.915634l-2.951973,-4.929672z"/>
  <path fill="#000000" fill-opacity="0.4875" fill-rule="evenodd" stroke-width="1.0000000pt" id="path5328" d="m29.58201,147.443039l-8.855909,-1.971863l-6.887921,3.943741l-1.967979,1.971878l6.887919,2.957809l4.91995,0.985931l-2.951969,6.901566l-3.935961,4.929703l-0.98398,5.915619l10.823879,-1.971878l4.91995,-7.887512l1.96797,-7.887497l-3.935949,-7.887497z"/>
  <path fill="#000000" fill-opacity="0.2875" fill-rule="evenodd" stroke-width="1.0000000pt" id="path5330" d="m158.484619,162.232101l-7.871902,-7.887497l-12.791885,1.971878l-21.647758,-1.971878l-5.903931,0l13.775848,10.845322l0.983986,9.85939l4.919952,9.85936l4.919937,6.90155l-0.983994,3.943756l3.935959,-7.887497l5.903946,5.915634l6.887939,-6.901566l0.983978,-6.901581l5.903931,8.873444l4.919937,-2.957794l9.839905,12.817184l-0.983994,-13.803131l-4.919937,-10.845322l-1.967972,-3.943741l5.903931,-2.957809l2.951965,-6.901581l-6.887924,1.971878l-7.871918,0z"/>
  <path fill="#000000" fill-opacity="0.446875" fill-rule="evenodd" stroke-width="1.0000000pt" id="path5331" d="m201.780151,158.288361l2.951965,-6.901566l3.935959,4.929688l3.935959,-1.971878l4.919952,5.915619l7.871918,-1.971863l7.871902,-3.943756l11.807877,0l6.887924,8.873428l-8.855911,-0.985931l-2.95195,7.887512l3.935959,7.887512l-1.967987,7.887497l0,5.915604l-8.855911,0.985962l-5.903931,-3.943771l-3.935959,-11.831253l-7.871902,0.985962l-6.887939,-7.887512l-5.903931,-4.929688l-0.983994,-6.901566z"/>
  <path fill="#000000" fill-opacity="0.2875" fill-rule="evenodd" stroke-width="1.0000000pt" id="path5332" d="m304.115051,178.007126l-0.983978,-7.887512l-2.951996,-8.873444l-4.919922,1.971863l0.983978,8.873459l-3.935944,6.901566l-2.951965,6.901566l0.983978,3.943741l6.887939,-2.957809l3.935944,-2.957809l2.951965,-5.915619z"/>
  <path fill="#000000" fill-opacity="0.2875" fill-rule="evenodd" stroke-width="1.0000000pt" id="path5333" d="m282.467285,163.218033l-2.951965,-5.915619l-5.903931,-3.943741l-4.919952,0.985931l2.951965,8.873428l0.983978,5.915634l0.984009,2.957825l6.887909,-3.943756l1.967987,-4.929703z"/>
  <path fill="#000000" fill-opacity="0.45625" fill-rule="evenodd" stroke-width="1.0000000pt" id="path5334" d="m330.68277,153.358673l0.983978,5.915619l11.807892,1.971878l5.903931,-2.957809l12.79187,-7.887512l-15.743835,0.985947l-5.903931,0.985947l-3.935974,-0.985947l-5.903931,1.971878z"/>
  <path fill="#000000" fill-opacity="0.2875" fill-rule="evenodd" stroke-width="1.0000000pt" id="path5336" d="m285.41925,200.683685l-6.887939,-3.943756l-3.935944,4.929688l-2.951965,6.901566l-2.951965,7.887512l4.919952,-1.971893l8.855896,-6.90155l2.951965,-6.901566z"/>
  <path fill="#000000" fill-opacity="0.4375" fill-rule="evenodd" stroke-width="1.0000000pt" id="path5337" d="m251.963608,191.810226l-0.983994,7.887512l6.887939,6.901566l-0.984009,-7.887497l0.984009,-6.901581l-5.903946,0z"/>
  <path fill="#ffffff" fill-opacity="0.44375" fill-rule="evenodd" stroke-width="1.0000000pt" id="path5383" d="m169.167404,48.609581l-7.343735,2.854321l1.468735,3.56789l5.875,-0.713581l0,-5.70863z"/>
  <path fill="#ffffff" fill-opacity="0.44375" fill-rule="evenodd" stroke-width="1.0000000pt" id="path5384" d="m177.979904,55.38858l-7.34375,2.854321l1.468765,3.56789l5.874985,-0.71357l0,-5.708641z"/>
  <path fill="#ffffff" fill-opacity="0.44375" fill-rule="evenodd" stroke-width="1.0000000pt" id="path5385" d="m180.917404,48.252789l-7.34375,2.854321l1.46875,3.56789l5.875,-0.71357l0,-5.708641z"/>
  <path fill="#ffffff" fill-opacity="0.44375" fill-rule="evenodd" stroke-width="1.0000000pt" id="path5386" d="m190.464264,53.961418l-7.34375,2.854321l1.468765,3.567902l5.874985,-0.713581l0,-5.708641z"/>
  <path fill="#ffffff" fill-opacity="0.44375" fill-rule="evenodd" stroke-width="1.0000000pt" id="path5387" d="m154.112732,61.45401l-7.343735,2.854317l1.46875,3.567894l5.874985,-0.713577l0,-5.708633z"/>
  <path fill="#ffffff" fill-opacity="0.44375" fill-rule="evenodd" stroke-width="1.0000000pt" id="path5388" d="m201.847061,94.635437l-7.343735,2.854317l1.468765,3.567909l5.874969,-0.713585l0,-5.708641z"/>
  <path fill="#ffffff" fill-opacity="0.44375" fill-rule="evenodd" stroke-width="1.0000000pt" id="path5389" d="m189.362717,76.082382l-7.34375,2.854317l1.46875,3.567894l5.875,-0.71357l0,-5.708641z"/>
  <path fill="#ffffff" fill-opacity="0.44375" fill-rule="evenodd" stroke-width="1.0000000pt" id="path5390" d="m175.409592,66.805847l-7.343735,2.854324l1.46875,3.567902l5.874985,-0.713585l0,-5.708641z"/>
  <path fill="#ffffff" fill-opacity="0.44375" fill-rule="evenodd" stroke-width="1.0000000pt" id="path5391" d="m190.831451,66.449059l-7.34375,2.854324l1.468765,3.567894l5.874985,-0.713577l0,-5.708641z"/>
  <path fill="#ffffff" fill-opacity="0.44375" fill-rule="evenodd" stroke-width="1.0000000pt" id="path5392" d="m207.722061,70.373749l-7.343735,2.854324l1.46875,3.567886l5.874985,-0.713577l0,-5.708633z"/>
  <path fill="#ffffff" fill-opacity="0.44375" fill-rule="evenodd" stroke-width="1.0000000pt" id="path5393" d="m207.722061,56.815739l-7.343735,2.854321l1.46875,3.56789l5.874985,-0.71357l0,-5.708641z"/>
  <path fill="#ffffff" fill-opacity="0.44375" fill-rule="evenodd" stroke-width="1.0000000pt" id="path5394" d="m212.128311,62.52438l-7.343735,2.854313l1.46875,3.567894l5.874985,-0.713577l0,-5.70863z"/>
  <path fill="#ffffff" fill-opacity="0.44375" fill-rule="evenodd" stroke-width="1.0000000pt" id="path5395" d="m205.518936,50.036739l-7.343735,2.854309l1.46875,3.567902l5.874985,-0.713581l0,-5.70863z"/>
  <path fill="#ffffff" fill-opacity="0.44375" fill-rule="evenodd" stroke-width="1.0000000pt" id="path5396" d="m201.112701,57.52932l-7.34375,2.854321l1.468765,3.56789l5.874985,-0.713581l0,-5.70863z"/>
  <path fill="#ffffff" fill-opacity="0.44375" fill-rule="evenodd" stroke-width="1.0000000pt" id="path5397" d="m195.237717,45.398472l-7.34375,2.854317l1.46875,3.567902l5.875,-0.713581l0,-5.708637z"/>
  <path fill="#ffffff" fill-opacity="0.44375" fill-rule="evenodd" stroke-width="1.0000000pt" id="path5398" d="m212.862686,56.102161l-7.34375,2.854317l1.46875,3.56789l5.875,-0.713577l0,-5.70863z"/>
  <path fill="#ffffff" fill-opacity="0.44375" fill-rule="evenodd" stroke-width="1.0000000pt" id="path5399" d="m224.612686,67.876221l-7.343735,2.854317l1.46875,3.567894l5.874985,-0.713585l0,-5.708626z"/>
  <path fill="#ffffff" fill-opacity="0.44375" fill-rule="evenodd" stroke-width="1.0000000pt" id="path5400" d="m220.206436,62.52438l-7.34375,2.854313l1.468765,3.567894l5.874985,-0.713577l0,-5.70863z"/>
  <path fill="#ffffff" fill-opacity="0.44375" fill-rule="evenodd" stroke-width="1.0000000pt" id="path5401" d="m221.675186,58.242901l-7.343735,2.854321l1.46875,3.567902l5.874985,-0.713593l0,-5.70863z"/>
  <path fill="#ffffff" fill-opacity="0.44375" fill-rule="evenodd" stroke-width="1.0000000pt" id="path5402" d="m204.050186,62.524368l-7.343735,2.854324l1.468765,3.567894l5.874969,-0.713577l0,-5.708641z"/>
  <path fill="#ffffff" fill-opacity="0.44375" fill-rule="evenodd" stroke-width="1.0000000pt" id="path5403" d="m177.979904,65.021896l-7.34375,2.854317l1.468765,3.567894l5.874985,-0.71357l0,-5.708641z"/>
  <path fill="#ffffff" fill-opacity="0.44375" fill-rule="evenodd" stroke-width="1.0000000pt" id="path5404" d="m186.792389,71.800903l-7.343735,2.854317l1.46875,3.567902l5.874985,-0.713585l0,-5.708633z"/>
  <path fill="#ffffff" fill-opacity="0.44375" fill-rule="evenodd" stroke-width="1.0000000pt" id="path5405" d="m189.729904,64.665123l-7.34375,2.854294l1.46875,3.567917l5.875,-0.713585l0,-5.708626z"/>
  <path fill="#ffffff" fill-opacity="0.44375" fill-rule="evenodd" stroke-width="1.0000000pt" id="path5406" d="m184.589264,70.730537l-5.874985,6.342926l1.175003,7.928658l4.699982,-1.585732l0,-12.685852z"/>
  <path fill="#ffffff" fill-opacity="0.44375" fill-rule="evenodd" stroke-width="1.0000000pt" id="path5407" d="m197.808014,66.805847l-7.34375,2.854324l1.46875,3.567886l5.875,-0.71357l0,-5.708641z"/>
  <path fill="#ffffff" fill-opacity="0.44375" fill-rule="evenodd" stroke-width="1.0000000pt" id="path5408" d="m200.745514,59.670059l-7.343735,2.854321l1.46875,3.56789l5.874985,-0.713577l0,-5.708633z"/>
  <path fill="#ffffff" fill-opacity="0.44375" fill-rule="evenodd" stroke-width="1.0000000pt" id="path5409" d="m216.167374,77.866333l-7.34375,2.854317l1.46875,3.567894l5.875,-0.713577l0,-5.708633z"/>
  <path fill="#ffffff" fill-opacity="0.44375" fill-rule="evenodd" stroke-width="1.0000000pt" id="path5410" d="m224.979874,84.645332l-7.343765,2.854317l1.468765,3.567902l5.875,-0.713577l0,-5.708641z"/>
  <path fill="#ffffff" fill-opacity="0.44375" fill-rule="evenodd" stroke-width="1.0000000pt" id="path5411" d="m227.917358,77.509537l-7.343735,2.854324l1.46875,3.567902l5.874985,-0.713585l0,-5.708641z"/>
  <path fill="#ffffff" fill-opacity="0.44375" fill-rule="evenodd" stroke-width="1.0000000pt" id="path5412" d="m231.589233,66.449059l-7.343735,2.854324l1.46875,3.567894l5.874985,-0.713577l0,-5.708641z"/>
  <path fill="#ffffff" fill-opacity="0.44375" fill-rule="evenodd" stroke-width="1.0000000pt" id="path5413" d="m240.401733,73.228073l-7.34375,2.854309l1.46875,3.567902l5.875,-0.713585l0,-5.708626z"/>
  <path fill="#ffffff" fill-opacity="0.44375" fill-rule="evenodd" stroke-width="1.0000000pt" id="path5414" d="m243.339233,66.09227l-7.34375,2.854317l1.468765,3.567902l5.874985,-0.713585l0,-5.708633z"/>
  <path fill="#ffffff" fill-opacity="0.44375" fill-rule="evenodd" stroke-width="1.0000000pt" id="path5415" d="m222.776733,52.177471l-7.34375,2.854321l1.468765,3.567898l5.874985,-0.713581l0,-5.708637z"/>
  <path fill="#ffffff" fill-opacity="0.44375" fill-rule="evenodd" stroke-width="1.0000000pt" id="path5416" d="m231.589233,58.956478l-7.34375,2.854313l1.46875,3.567902l5.875,-0.71357l0,-5.708645z"/>
  <path fill="#ffffff" fill-opacity="0.44375" fill-rule="evenodd" stroke-width="1.0000000pt" id="path5417" d="m234.526733,51.82069l-7.343735,2.854309l1.468735,3.567902l5.875,-0.713581l0,-5.70863z"/>
  <path fill="#ffffff" fill-opacity="0.44375" fill-rule="evenodd" stroke-width="1.0000000pt" id="path5418" d="m242.604843,59.313271l-7.34375,2.854309l1.46875,3.567902l5.875,-0.713585l0,-5.708626z"/>
  <path fill="#ffffff" fill-opacity="0.44375" fill-rule="evenodd" stroke-width="1.0000000pt" id="path5419" d="m251.417343,66.09227l-7.34375,2.854317l1.46875,3.567902l5.875,-0.713585l0,-5.708633z"/>
  <path fill="#ffffff" fill-opacity="0.44375" fill-rule="evenodd" stroke-width="1.0000000pt" id="path5420" d="m254.354828,58.956478l-7.343735,2.854313l1.46875,3.567902l5.874985,-0.71357l0,-5.708645z"/>
  <path fill="#ffffff" fill-opacity="0.44375" fill-rule="evenodd" stroke-width="1.0000000pt" id="path5421" d="m135.386185,55.745369l-7.34375,2.854321l1.468765,3.56789l5.874985,-0.71357l0,-5.708641z"/>
  <path fill="#ffffff" fill-opacity="0.44375" fill-rule="evenodd" stroke-width="1.0000000pt" id="path5422" d="m137.58931,69.660172l-7.343735,2.854317l1.468735,3.567894l5.875,-0.713585l0,-5.708626z"/>
  <path fill="#ffffff" fill-opacity="0.44375" fill-rule="evenodd" stroke-width="1.0000000pt" id="path5423" d="m147.136185,55.38858l-7.34375,2.854321l1.46875,3.56789l5.875,-0.71357l0,-5.708641z"/>
  <path fill="#ffffff" fill-opacity="0.44375" fill-rule="evenodd" stroke-width="1.0000000pt" id="path5424" d="m140.526794,72.871277l-7.34375,2.854317l1.468765,3.567894l5.874985,-0.713577l0,-5.708633z"/>
  <path fill="#ffffff" fill-opacity="0.44375" fill-rule="evenodd" stroke-width="1.0000000pt" id="path5425" d="m149.339294,79.650284l-7.34375,2.854309l1.46875,3.567894l5.875,-0.71357l0,-5.708633z"/>
  <path fill="#ffffff" fill-opacity="0.44375" fill-rule="evenodd" stroke-width="1.0000000pt" id="path5426" d="m141.995544,85.358917l-7.343735,2.854309l1.46875,3.567902l5.874985,-0.713577l0,-5.708633z"/>
  <path fill="#ffffff" fill-opacity="0.44375" fill-rule="evenodd" stroke-width="1.0000000pt" id="path5427" d="m155.214294,96.419403l-7.343735,2.854294l1.468735,3.567917l5.875,-0.713585l0,-5.708626z"/>
  <path fill="#ffffff" fill-opacity="0.44375" fill-rule="evenodd" stroke-width="1.0000000pt" id="path5428" d="m169.901764,83.931763l-7.343719,2.854309l1.46875,3.567902l5.874969,-0.713585l0,-5.708626z"/>
  <path fill="#ffffff" fill-opacity="0.44375" fill-rule="evenodd" stroke-width="1.0000000pt" id="path5429" d="m175.042404,85.358917l-7.34375,2.854309l1.468765,3.567902l5.874985,-0.713577l0,-5.708633z"/>
  <path fill="#ffffff" fill-opacity="0.44375" fill-rule="evenodd" stroke-width="1.0000000pt" id="path5430" d="m183.120514,81.434219l-7.343735,2.854324l1.46875,3.567909l5.874985,-0.713593l0,-5.708641z"/>
  <path fill="#ffffff" fill-opacity="0.44375" fill-rule="evenodd" stroke-width="1.0000000pt" id="path5431" d="m191.933014,88.213226l-7.34375,2.854317l1.46875,3.567894l5.875,-0.71357l0,-5.708641z"/>
  <path fill="#ffffff" fill-opacity="0.44375" fill-rule="evenodd" stroke-width="1.0000000pt" id="path5432" d="m194.870514,81.077431l-7.34375,2.854332l1.46875,3.567886l5.875,-0.713577l0,-5.708641z"/>
  <path fill="#ffffff" fill-opacity="0.44375" fill-rule="evenodd" stroke-width="1.0000000pt" id="path5433" d="m195.604889,103.555183l-7.34375,2.854317l1.468765,3.567902l5.874985,-0.71357l0,-5.708649z"/>
  <path fill="#ffffff" fill-opacity="0.44375" fill-rule="evenodd" stroke-width="1.0000000pt" id="path5434" d="m213.229874,85.35891l-7.34375,2.854317l1.46875,3.567902l5.875,-0.713585l0,-5.708633z"/>
  <path fill="#ffffff" fill-opacity="0.44375" fill-rule="evenodd" stroke-width="1.0000000pt" id="path5435" d="m219.104858,95.349022l-7.343735,2.854317l1.46875,3.567902l5.874985,-0.713577l0,-5.708641z"/>
  <path fill="#ffffff" fill-opacity="0.44375" fill-rule="evenodd" stroke-width="1.0000000pt" id="path5436" d="m238.932983,81.434227l-7.34375,2.854317l1.46875,3.567894l5.875,-0.713577l0,-5.708633z"/>
  <path fill="#ffffff" fill-opacity="0.44375" fill-rule="evenodd" stroke-width="1.0000000pt" id="path5437" d="m247.745483,88.213226l-7.34375,2.854324l1.46875,3.567886l5.875,-0.713577l0,-5.708633z"/>
  <path fill="#ffffff" fill-opacity="0.44375" fill-rule="evenodd" stroke-width="1.0000000pt" id="path5438" d="m250.682968,81.077438l-7.343735,2.854324l1.46875,3.567886l5.874985,-0.713577l0,-5.708633z"/>
  <path fill="#ffffff" fill-opacity="0.44375" fill-rule="evenodd" stroke-width="1.0000000pt" id="path5439" d="m255.823593,77.152748l-7.34375,2.854309l1.46875,3.567909l5.875,-0.713577l0,-5.708641z"/>
  <path fill="#ffffff" fill-opacity="0.44375" fill-rule="evenodd" stroke-width="1.0000000pt" id="path5440" d="m290.339203,101.77124l-7.34375,2.854309l1.46875,3.567894l5.875,-0.71357l0,-5.708633z"/>
  <path fill="#ffffff" fill-opacity="0.44375" fill-rule="evenodd" stroke-width="1.0000000pt" id="path5441" d="m261.698608,73.228073l-7.343765,2.854309l1.46875,3.567902l5.875015,-0.713593l0,-5.708618z"/>
  <path fill="#ffffff" fill-opacity="0.44375" fill-rule="evenodd" stroke-width="1.0000000pt" id="path5442" d="m262.432953,64.308327l-7.343735,2.854317l1.468765,3.567894l5.874969,-0.713577l0,-5.708633z"/>
  <path fill="#ffffff" fill-opacity="0.44375" fill-rule="evenodd" stroke-width="1.0000000pt" id="path5443" d="m282.995453,80.363853l-7.34375,2.854324l1.46875,3.567894l5.875,-0.713585l0,-5.708633z"/>
  <path fill="#ffffff" fill-opacity="0.44375" fill-rule="evenodd" stroke-width="1.0000000pt" id="path5444" d="m274.182953,63.95153l-7.343719,2.854317l1.468719,3.567902l5.875,-0.713593l0,-5.708626z"/>
  <path fill="#ffffff" fill-opacity="0.44375" fill-rule="evenodd" stroke-width="1.0000000pt" id="path5445" d="m122.90181,67.876221l-7.343727,2.854317l1.46875,3.567894l5.874977,-0.713585l0,-5.708626z"/>
  <path fill="#ffffff" fill-opacity="0.44375" fill-rule="evenodd" stroke-width="1.0000000pt" id="path5446" d="m131.71431,74.655228l-7.343742,2.854309l1.46875,3.567902l5.874992,-0.713577l0,-5.708633z"/>
  <path fill="#ffffff" fill-opacity="0.44375" fill-rule="evenodd" stroke-width="1.0000000pt" id="path5447" d="m140.52681,74.65522l-7.34375,2.854317l1.468765,3.567894l5.874985,-0.71357l0,-5.708641z"/>
  <path fill="#ffffff" fill-opacity="0.44375" fill-rule="evenodd" stroke-width="1.0000000pt" id="path5448" d="m109.683083,61.45401l-7.343742,2.854317l1.46875,3.567894l5.874992,-0.713577l0,-5.708633z"/>
  <path fill="#ffffff" fill-opacity="0.44375" fill-rule="evenodd" stroke-width="1.0000000pt" id="path5449" d="m118.495583,68.233009l-7.343742,2.854324l1.46875,3.567886l5.874992,-0.713577l0,-5.708633z"/>
  <path fill="#ffffff" fill-opacity="0.44375" fill-rule="evenodd" stroke-width="1.0000000pt" id="path5450" d="m122.901817,69.660172l-7.343735,2.854317l1.46875,3.567894l5.874985,-0.713585l0,-5.708626z"/>
  <path fill="#ffffff" fill-opacity="0.44375" fill-rule="evenodd" stroke-width="1.0000000pt" id="path5451" d="m151.542419,51.46389l-7.343735,2.854321l1.468735,3.567898l5.875,-0.713577l0,-5.708641z"/>
  <path fill="#ffffff" fill-opacity="0.44375" fill-rule="evenodd" stroke-width="1.0000000pt" id="path5452" d="m161.089279,88.926811l-7.34375,2.854317l1.468765,3.567894l5.874985,-0.713585l0,-5.708626z"/>
  <path fill="#ffffff" fill-opacity="0.44375" fill-rule="evenodd" stroke-width="1.0000000pt" id="path5453" d="m163.292404,51.107109l-7.343735,2.854309l1.46875,3.567902l5.874985,-0.713581l0,-5.70863z"/>
  <path fill="#ffffff" fill-opacity="0.44375" fill-rule="evenodd" stroke-width="1.0000000pt" id="path5454" d="m97.933083,83.574966l-7.343735,2.854317l1.46875,3.567894l5.874985,-0.713577l0,-5.708633z"/>
  <path fill="#ffffff" fill-opacity="0.44375" fill-rule="evenodd" stroke-width="1.0000000pt" id="path5455" d="m117.7612,84.645332l-7.34375,2.854317l1.46875,3.567902l5.875,-0.713577l0,-5.708641z"/>
  <path fill="#ffffff" fill-opacity="0.44375" fill-rule="evenodd" stroke-width="1.0000000pt" id="path5456" d="m111.15184,86.786072l-7.34375,2.854317l1.46875,3.567894l5.875,-0.71357l0,-5.708641z"/>
  <path fill="#ffffff" fill-opacity="0.44375" fill-rule="evenodd" stroke-width="1.0000000pt" id="path5457" d="m133.183044,88.570023l-7.343727,2.854317l1.46875,3.567894l5.874977,-0.713585l0,-5.708626z"/>
  <path fill="#ffffff" fill-opacity="0.44375" fill-rule="evenodd" stroke-width="1.0000000pt" id="path5458" d="m141.995544,95.349022l-7.343735,2.854309l1.46875,3.567909l5.874985,-0.713577l0,-5.708641z"/>
  <path fill="#ffffff" fill-opacity="0.44375" fill-rule="evenodd" stroke-width="1.0000000pt" id="path5459" d="m144.93306,88.213226l-7.343735,2.854324l1.46875,3.567886l5.874985,-0.713577l0,-5.708633z"/>
  <path fill="#ffffff" fill-opacity="0.44375" fill-rule="evenodd" stroke-width="1.0000000pt" id="path5460" d="m255.823593,92.137917l-7.34375,2.854324l1.46875,3.567886l5.875,-0.71357l0,-5.708641z"/>
  <path fill="#ffffff" fill-opacity="0.44375" fill-rule="evenodd" stroke-width="1.0000000pt" id="path5461" d="m264.636078,98.916924l-7.34375,2.854317l1.468781,3.567902l5.874969,-0.713593l0,-5.708626z"/>
  <path fill="#ffffff" fill-opacity="0.44375" fill-rule="evenodd" stroke-width="1.0000000pt" id="path5462" d="m267.573578,91.781128l-7.343719,2.854309l1.46875,3.567902l5.874969,-0.71357l0,-5.708641z"/>
  <path fill="#ffffff" fill-opacity="0.44375" fill-rule="evenodd" stroke-width="1.0000000pt" id="path5463" d="m267.573578,99.987289l-7.34375,2.854324l1.468781,3.567886l5.874969,-0.713577l0,-5.708633z"/>
  <path fill="#ffffff" fill-opacity="0.44375" fill-rule="evenodd" stroke-width="1.0000000pt" id="path5464" d="m282.261078,91.067551l-7.34375,2.854309l1.46875,3.567894l5.875,-0.713577l0,-5.708626z"/>
  <path fill="#ffffff" fill-opacity="0.44375" fill-rule="evenodd" stroke-width="1.0000000pt" id="path5465" d="m236.729843,96.062599l-7.343719,2.854324l1.468735,3.567886l5.874985,-0.71357l0,-5.708641z"/>
 </g>
</svg>