<?xml version="1.0"?><svg width="300" height="300" xmlns="http://www.w3.org/2000/svg">
 <title>cycling</title>
 <g>
  <title>Layer 1</title>
  <g id="Layer_1">
   <g id="svg_1">
    <g id="surface0">
     <path fill="#ff0000" stroke="#000000" stroke-width="0.1" stroke-miterlimit="10" d="m225.584,44.897999c7.244003,-0.696999 14.904007,2.277 19.453003,8.038002c3.166992,3.603001 4.606995,8.368 5.110001,13.058002c-0.201996,7.187996 -3.858002,14.225998 -9.887009,18.226997c-5.761002,3.689003 -13.246994,4.833 -19.712997,2.394997c-9.916992,-3.116997 -16.655991,-14.348 -14.285004,-24.540997c1.978012,-9.118999 10.061005,-16.223 19.322006,-17.177002z" id="svg_2"/>
     <path d="m225.584,44.897999c7.244003,-0.696999 14.904007,2.277 19.453003,8.038002c3.166992,3.603001 4.606995,8.368 5.110001,13.058002c-0.201996,7.187996 -3.858002,14.225998 -9.887009,18.226997c-5.761002,3.689003 -13.246994,4.833 -19.712997,2.394997c-9.916992,-3.116997 -16.655991,-14.348 -14.285004,-24.540997c1.978012,-9.118999 10.061005,-16.223 19.322006,-17.177002z" id="svg_3" fill="#ff0000"/>
     <path fill="#ff0000" stroke="#000000" stroke-width="0.1" stroke-miterlimit="10" d="m181.190994,75.164001c3.714996,-3.222 9.714996,-4.231003 13.871994,-1.221001c5.016998,3.368996 6.962997,9.417 9.451996,14.625c3.416,8.777 9.064011,16.671997 16.359009,22.638c8.841995,7.303001 19.136993,12.582001 29.528992,17.303001c6.256012,3.087997 13.622009,2.257004 19.955017,5.076996c-12.488007,0.608002 -25.234009,-0.078003 -37.310013,-3.556992c-13.078995,-3.183006 -26.322998,-8.395004 -35.865997,-18.225006c-7.078003,-7.458 -13.744995,-15.686005 -17.324997,-25.445c-1.319992,-3.634003 -1.764999,-8.314003 1.334,-11.195z" id="svg_4"/>
     <path d="m181.190994,75.164001c3.714996,-3.222 9.714996,-4.231003 13.871994,-1.221001c5.016998,3.368996 6.962997,9.417 9.451996,14.625c3.416,8.777 9.064011,16.671997 16.359009,22.638c8.841995,7.303001 19.136993,12.582001 29.528992,17.303001c6.256012,3.087997 13.622009,2.257004 19.955017,5.076996c-12.488007,0.608002 -25.234009,-0.078003 -37.310013,-3.556992c-13.078995,-3.183006 -26.322998,-8.395004 -35.865997,-18.225006c-7.078003,-7.458 -13.744995,-15.686005 -17.324997,-25.445c-1.319992,-3.634003 -1.764999,-8.314003 1.334,-11.195z" id="svg_5" fill="#ff0000"/>
     <path fill="#ff0000" stroke="#000000" stroke-width="0.1" stroke-miterlimit="10" d="m110.047997,107.919998c1.18,-4.969002 5.210007,-8.481995 9.794006,-10.327995c5.315994,0.990997 9.657997,4.856995 11.704002,9.800995c3.438995,7.744003 3.974991,16.316002 4.631989,24.64901c3.429001,33.548996 5.082001,67.240997 6.686005,100.918991c0.028,3.651001 0.231995,7.326996 -0.296005,10.959c-2.330994,-3.630005 -3.370987,-7.873993 -4.663986,-11.938004c-2.871002,-9.770996 -5.881012,-19.505997 -8.731003,-29.278992c-4.549004,-21.354004 -11.446007,-42.123001 -15.617004,-63.56601c-1.900002,-10.250992 -6.092003,-20.708992 -3.508003,-31.216995z" id="svg_6"/>
     <path d="m110.047997,107.919998c1.18,-4.969002 5.210007,-8.481995 9.794006,-10.327995c5.315994,0.990997 9.657997,4.856995 11.704002,9.800995c3.438995,7.744003 3.974991,16.316002 4.631989,24.64901c3.429001,33.548996 5.082001,67.240997 6.686005,100.918991c0.028,3.651001 0.231995,7.326996 -0.296005,10.959c-2.330994,-3.630005 -3.370987,-7.873993 -4.663986,-11.938004c-2.871002,-9.770996 -5.881012,-19.505997 -8.731003,-29.278992c-4.549004,-21.354004 -11.446007,-42.123001 -15.617004,-63.56601c-1.900002,-10.250992 -6.092003,-20.708992 -3.508003,-31.216995z" id="svg_7" fill="#ff0000"/>
     <path fill="#ff0000" stroke="#000000" stroke-width="0.1" stroke-miterlimit="10" d="m136.774994,112.068001c-0.742004,-4.646004 1.813995,-9.225998 5.287003,-12.149002c10.847992,-1.534996 21.867996,2.165001 30.746994,8.340004c7.768005,4.899994 17.076004,10.737 18.270996,20.724991c0.145004,8.936005 -4.826996,17.080002 -10.690994,23.488007c-8.126007,8.824005 -16.716003,17.203003 -24.873001,26.001007c-2.731995,2.656998 -5.143997,5.934998 -8.848007,7.285995c0.343002,-2.378998 0.850006,-4.766006 1.981003,-6.904999c7.878006,-15.352997 15.360001,-30.902008 22.89801,-46.419006c-8.990997,-3.451996 -18.414001,-6.130997 -26.653,-11.256996c-3.380997,-2.276001 -7.089005,-4.917 -8.119003,-9.110001z" id="svg_8"/>
     <path d="m136.774994,112.068001c-0.742004,-4.646004 1.813995,-9.225998 5.287003,-12.149002c10.847992,-1.534996 21.867996,2.165001 30.746994,8.340004c7.768005,4.899994 17.076004,10.737 18.270996,20.724991c0.145004,8.936005 -4.826996,17.080002 -10.690994,23.488007c-8.126007,8.824005 -16.716003,17.203003 -24.873001,26.001007c-2.731995,2.656998 -5.143997,5.934998 -8.848007,7.285995c0.343002,-2.378998 0.850006,-4.766006 1.981003,-6.904999c7.878006,-15.352997 15.360001,-30.902008 22.89801,-46.419006c-8.990997,-3.451996 -18.414001,-6.130997 -26.653,-11.256996c-3.380997,-2.276001 -7.089005,-4.917 -8.119003,-9.110001z" id="svg_9" fill="#ff0000"/>
     <path fill="#ff0000" stroke="#000000" stroke-width="0.1" stroke-miterlimit="10" d="m64.514,138.044998c12.583,-2.520996 26.361,0.792999 36.044998,9.318008c7.169998,6.497986 12.428001,15.095993 14.596001,24.556992c4.040001,14.320999 1.652,29.748001 -3.937996,43.313004c-6.007004,12.451004 -14.901001,24.016998 -27.115005,30.884003c-10.799995,7.014999 -24.467999,9.279999 -36.976997,6.297989c-12.243999,-3.167999 -22.577,-12.378998 -27.747,-23.840988c-9.032001,-19.425003 -6.12,-43.21701 5.302,-61.021011c8.557999,-14.68399 23.139999,-25.86499 39.834,-29.507996z" id="svg_10"/>
     <g id="svg_11">
      <path d="m72.880997,137.222c10.043007,0 20.110001,3.479996 27.678001,10.141998c7.169998,6.498001 12.428001,15.096008 14.596001,24.557007c4.040001,14.320999 1.652,29.748001 -3.937996,43.312988c-6.007004,12.451004 -14.901001,24.017014 -27.115005,30.884003c-7.687996,4.992996 -16.830994,7.581009 -25.972996,7.581009c-3.701,0 -7.399002,-0.424011 -11.004002,-1.283005c-12.243999,-3.167999 -22.577,-12.378998 -27.747,-23.841003c-9.032001,-19.425003 -6.12,-43.216995 5.302,-61.020996c8.556999,-14.682999 23.139,-25.863998 39.833,-29.507004c2.750999,-0.552994 5.558998,-0.824997 8.367996,-0.824997m0.001007,6c-0.001007,0 0,0 0,0l0,0c-2.413002,0 -4.814003,0.233994 -7.137001,0.695999c-14.607002,3.203003 -28.017002,13.164993 -35.880003,26.656006l-0.065001,0.110001l-0.068998,0.106995c-10.779001,16.802002 -12.707001,38.488998 -4.912001,55.253006l0.014999,0.029999l0.014,0.031998c4.511,9.998993 13.597,17.843002 23.723,20.483994c3.098999,0.733002 6.313999,1.106003 9.559002,1.106003c8.076,0 16.139996,-2.348999 22.704998,-6.613007l0.161003,-0.103989l0.167,-0.095001c12.420998,-6.983002 20.209999,-19.104004 24.574997,-28.102997c3.990997,-9.743011 7.826004,-24.404007 3.644005,-39.234009l-0.041,-0.143997l-0.033005,-0.145004c-1.837997,-8.020996 -6.363998,-15.626999 -12.743996,-21.421997c-6.239006,-5.473999 -14.869003,-8.613998 -23.681999,-8.613998l0,0z" id="svg_12" fill="#ff0000"/>
     </g>
     <path fill="#ff0000" stroke="#000000" stroke-width="0.1" stroke-miterlimit="10" d="m231.589996,140.026993c11.419998,-2.240997 23.822006,0.244995 33.242004,7.158005c9.621002,7.17099 15.920013,18.219986 18.100006,29.949997c4.97998,24.621002 -5.76001,51.085999 -25.214996,66.619003c-9.412018,7.018997 -20.677017,12.328003 -32.666016,11.895996c-14.442001,0.528992 -28.358994,-7.695999 -35.85199,-19.860992c-8.729004,-14.139008 -10.190002,-32.005997 -5.615005,-47.800995c2.169998,-9.383011 7.209,-17.825012 12.893005,-25.477005c8.65799,-11.251007 21.222,-19.419998 35.112991,-22.484009z" id="svg_13"/>
     <g id="svg_14">
      <path d="m239.888,139.225998c8.878006,0 17.773987,2.697006 24.944,7.959c9.621002,7.171005 15.920013,18.220001 18.100006,29.949997c4.97998,24.621002 -5.76001,51.085999 -25.214996,66.619003c-9.053009,6.751007 -19.821014,11.921005 -31.299011,11.921005c-0.455002,0 -0.910004,-0.007996 -1.367004,-0.024002c-0.438995,0.016998 -0.880997,0.024002 -1.319,0.024002c-13.965988,0 -27.268997,-8.091003 -34.531998,-19.886002c-8.729004,-14.139008 -10.190002,-32.005997 -5.61499,-47.800995c2.169998,-9.383011 7.209,-17.825012 12.89299,-25.477005c8.658005,-11.251999 21.223007,-19.421005 35.113007,-22.485001c2.725998,-0.533997 5.511993,-0.800003 8.296997,-0.800003m0.001007,6l0,0c-2.389999,0 -4.770996,0.227005 -7.078003,0.675995c-12.235992,2.718002 -23.729996,10.087006 -31.549988,20.231003c-6.405014,8.632004 -10.166,16.008011 -11.831009,23.207001l-0.037003,0.160004l-0.04599,0.158005c-4.314011,14.895996 -2.460999,30.962997 4.957993,42.978989c6.375,10.353012 17.925003,17.03801 29.427002,17.03801c0.365005,0 0.731995,-0.007004 1.098999,-0.020996l0.218994,-0.008011l0.219009,0.008011c0.384995,0.013992 0.76799,0.020996 1.149994,0.020996c8.815002,0 18.112,-3.591003 27.634003,-10.673004c18.15799,-14.548004 27.399994,-38.919006 22.998993,-60.677994l-0.009979,-0.047012l-0.009003,-0.046997c-1.983002,-10.673996 -7.737,-20.235992 -15.786011,-26.235001c-5.936005,-4.355988 -13.534012,-6.768997 -21.358002,-6.768997l0,0z" id="svg_15" fill="#ff0000"/>
     </g>
    </g>
   </g>
  </g>
 </g>
</svg>