<?xml version="1.0"?><svg width="640" height="480" xmlns="http://www.w3.org/2000/svg">
 <title>blue person no shadow</title>
 <defs>
  <linearGradient y2="1" x2="1" y1="0" x1="0" id="svg_3">
   <stop stop-color="#7f7f7f" offset="0"/>
   <stop stop-color="#cccccc" offset="1"/>
  </linearGradient>
 </defs>
 <g>
  <title>Layer 1</title>
  <g id="svg_2">
   <path d="m220.455444,258.804108c0.377106,-5.311951 -7.332001,-34.666779 13.439117,-71.988831c31.328186,-40.182251 128.928009,-40.642487 145.995941,0.620178c17.067871,41.26265 15.209534,71.660858 11.439148,76.972778c-11.508728,8.782623 -19.624146,11.436127 -31.132935,14.08963c0,0 -2.834412,-44.166519 -6.773254,-59.817856c-0.168335,-0.532928 4.874695,23.852554 6.773254,59.832443c-2.625793,35.571259 -5.251709,68.282196 -5.251709,68.282196c-34.768524,4.570038 -66.520935,5.462646 -99.781464,-0.999725c-3.393311,-4.085999 -11.230499,-52.65332 -12.193329,-73.799042c-0.962738,-24.414581 4.315857,-58.949066 4.315857,-58.949066c-1.131195,1.225769 -5.251678,47.238251 -3.938721,58.621155c-8.867126,1.167603 -21.006683,-10.003693 -22.891907,-12.863861z" id="path828" stroke-linejoin="round" stroke-width="0" fill-rule="evenodd" fill="url(#svg_3)"/>
   <path d="m344.441772,119.138657c0,26.704025 -19.998352,48.376938 -44.639069,48.376938c-24.640808,0 -44.63916,-21.672913 -44.63916,-48.376938c0,-26.704033 19.998352,-48.376892 44.63916,-48.376892c24.640717,0 44.639069,21.672859 44.639069,48.376892z" id="path827" stroke-linejoin="round" stroke-width="0" fill-rule="evenodd" fill="url(#svg_3)"/>
   <path d="m299.15097,74.412109c-19.439636,-8.772064 -65.230499,36.842918 -28.94339,77.77948c22.031555,-5.848114 -20.303497,-53.21756 28.94339,-77.77948z" id="path830" fill-opacity="0.25" stroke-width="0" fill-rule="evenodd" fill="url(#svg_3)"/>
   <path d="m276.6875,163.887741c-2.160004,-0.584793 -31.103271,6.432846 -41.471069,25.731537c-8.63974,7.017685 -16.847534,40.351715 -13.391663,67.252884c4.319855,4.678436 12.527679,12.280975 14.687683,10.52655c12.095612,-34.503693 -28.511353,-70.176971 40.175049,-103.510971z" id="path831" fill-opacity="0.25" stroke-width="0" fill-rule="evenodd" fill="url(#svg_3)"/>
   <path d="m247.74411,222.368484c-8.63974,35.673325 -0.431976,99.417313 9.071777,120.470383c9.503845,4.09375 22.895447,5.848114 25.919403,4.678497c2.59198,-29.825195 -35.855103,-25.731567 -34.99118,-125.14888z" id="path832" fill-opacity="0.25" stroke-width="0" fill-rule="evenodd" fill="url(#svg_3)"/>
   <path d="m301.742889,165.057373c36.719147,-13.450623 27.215424,-66.668129 43.631012,-52.04792c-1.296082,11.111366 -6.479919,50.293495 -43.631012,52.04792z" id="path833" fill-opacity="0.25" stroke-width="0" fill-rule="evenodd" fill="url(#svg_3)"/>
   <path d="m370.861267,272.661957c0,0 19.87146,-5.263245 20.735535,-10.52655c4.751953,-20.468262 -8.207825,-69.007294 -14.255676,-77.19458c-29.375366,-14.035416 31.967285,81.288269 -6.479858,87.72113z" id="path834" fill-opacity="0.25" stroke-width="0" fill-rule="evenodd" fill="url(#svg_3)"/>
   <path d="m331.550293,347.517365c0,0 19.007446,1.754425 21.167419,-2.924042c2.159973,-4.678467 12.095703,-45.615021 6.047852,-65.498444c-19.871582,-22.222717 7.343811,67.837738 -27.215271,68.422485z" id="path835" fill-opacity="0.24" stroke-width="0" fill-rule="evenodd" fill="url(#svg_3)"/>
  </g>
 </g>
</svg>